<svg width="38" height="38" viewBox="0 0 38 38" fill="none" xmlns="http://www.w3.org/2000/svg">
<g id="mingcute:star-fill">
<g id="Group">
<path id="Vector" d="M17.2898 4.54078C17.464 4.24178 17.7136 3.9937 18.0137 3.82127C18.3137 3.64884 18.6537 3.55811 18.9998 3.55811C19.3459 3.55811 19.6859 3.64884 19.9859 3.82127C20.286 3.9937 20.5356 4.24178 20.7098 4.54078L25.1352 12.1376L33.7295 13.9996C34.0676 14.0731 34.3805 14.2339 34.6371 14.466C34.8936 14.698 35.0848 14.9933 35.1917 15.3224C35.2985 15.6514 35.3173 16.0027 35.246 16.3412C35.1748 16.6798 35.016 16.9937 34.7856 17.2518L28.9273 23.8084L29.814 32.5563C29.8489 32.9007 29.7929 33.2484 29.6516 33.5644C29.5102 33.8805 29.2884 34.1539 29.0082 34.3574C28.7281 34.5609 28.3995 34.6874 28.0553 34.7242C27.711 34.761 27.3631 34.7068 27.0463 34.5671L18.9998 31.0204L10.9533 34.5671C10.6365 34.7068 10.2886 34.761 9.94432 34.7242C9.60005 34.6874 9.27145 34.5609 8.99134 34.3574C8.71123 34.1539 8.48941 33.8805 8.34803 33.5644C8.20665 33.2484 8.15065 32.9007 8.18563 32.5563L9.07229 23.8084L3.21396 17.2534C2.98315 16.9953 2.82407 16.6812 2.7526 16.3425C2.68112 16.0038 2.69976 15.6522 2.80664 15.3229C2.91352 14.9936 3.10491 14.6981 3.36169 14.4659C3.61848 14.2337 3.93169 14.0729 4.27004 13.9996L12.8644 12.1376L17.2898 4.54078Z" fill="#FFD233"/>
</g>
</g>
</svg>
